<svg xmlns="http://www.w3.org/2000/svg" viewBox="0 0 640 260" width="640" height="260" role="img"><style>.bg{fill:#fcfcfb}.t{fill:#0b0b0b}.t2{fill:#52514e}.g{stroke:#e6e5e1}.a{stroke:#e6e5e1}.s1{stroke:#2a78d6}.s2{stroke:#eb6834}.s1f{fill:#2a78d6}.s2f{fill:#eb6834}@media(prefers-color-scheme:dark){.bg{fill:#1a1a19}.t{fill:#ffffff}.t2{fill:#c3c2b7}.g{stroke:#333331}.a{stroke:#333331}.s1{stroke:#3987e5}.s2{stroke:#d95926}.s1f{fill:#3987e5}.s2f{fill:#d95926}}.g,.a{stroke-width:1}.ln{fill:none;stroke-width:2;stroke-linejoin:round;stroke-linecap:round}.t,.t2{font:11px system-ui,sans-serif}.lb{font:11px system-ui,sans-serif;font-weight:600}.cap{font:12px system-ui,sans-serif}</style><rect class="bg" width="640" height="260"/><line class="g" x1="64" y1="174.7" x2="532" y2="174.7"/><text class="t2" x="56" y="178.7" text-anchor="end">3.0</text><line class="g" x1="64" y1="113.2" x2="532" y2="113.2"/><text class="t2" x="56" y="117.2" text-anchor="end">3.5</text><line class="g" x1="64" y1="51.7" x2="532" y2="51.7"/><text class="t2" x="56" y="55.7" text-anchor="end">4.0</text><text class="t2" x="64.0" y="238" text-anchor="middle">0</text><text class="t2" x="144.2" y="238" text-anchor="middle">2</text><text class="t2" x="224.4" y="238" text-anchor="middle">4</text><text class="t2" x="304.7" y="238" text-anchor="middle">6</text><text class="t2" x="384.9" y="238" text-anchor="middle">8</text><text class="t2" x="465.1" y="238" text-anchor="middle">10</text><line class="a" x1="64" y1="218" x2="532" y2="218"/><text class="t2" x="298.0" y="252" text-anchor="middle">hours</text><text class="t2" transform="translate(14,120.0) rotate(-90)" text-anchor="middle">V/cell</text><path class="ln s1" d="M64.0,35.9 L64.7,35.6 L65.3,35.5 L66.0,36.1 L66.7,36.5 L67.3,36.7 L68.0,36.7 L68.7,37.3 L69.3,37.2 L70.0,37.8 L70.7,37.7 L71.4,39.4 L72.0,39.4 L72.7,38.9 L73.4,39.8 L74.0,40.5 L74.7,39.2 L75.4,40.9 L76.0,39.6 L76.7,40.3 L77.4,41.1 L78.0,40.6 L78.7,40.5 L79.4,40.7 L80.0,40.9 L80.7,42.1 L81.4,42.4 L82.1,41.7 L82.7,41.6 L83.4,43.3 L84.1,42.8 L84.7,42.4 L85.4,43.3 L86.1,42.7 L86.7,42.5 L87.4,44.1 L88.1,43.9 L88.7,42.9 L89.4,44.1 L90.1,44.2 L90.7,43.3 L91.4,43.9 L92.1,44.6 L92.7,44.0 L93.4,44.0 L94.1,45.4 L94.8,45.2 L95.4,44.4 L96.1,44.6 L96.8,44.2 L97.4,45.0 L98.1,44.3 L98.8,45.0 L99.4,44.5 L100.1,45.4 L100.8,45.0 L101.4,44.7 L102.1,45.1 L102.8,44.9 L103.4,45.3 L104.1,45.0 L104.8,45.4 L105.5,45.2 L106.1,45.3 L106.8,45.4 L107.5,45.7 L108.1,45.5 L108.8,45.8 L109.5,45.7 L110.1,46.2 L110.8,46.3 L111.5,46.3 L112.1,46.1 L112.8,46.5 L113.5,46.3 L114.1,47.6 L114.8,46.5 L115.5,46.6 L116.1,46.7 L116.8,46.9 L117.5,47.0 L118.2,47.2 L118.8,47.3 L119.5,47.8 L120.2,47.5 L120.8,48.0 L121.5,47.9 L122.2,48.3 L122.8,48.1 L123.5,48.6 L124.2,48.6 L124.8,49.0 L125.5,48.7 L126.2,48.9 L126.8,49.1 L127.5,49.2 L128.2,49.7 L128.9,50.1 L129.5,49.7 L130.2,50.2 L130.9,50.1 L131.5,50.7 L132.2,50.8 L132.9,50.9 L133.5,51.3 L134.2,51.3 L134.9,51.7 L135.5,51.6 L136.2,52.6 L136.9,51.6 L137.5,52.3 L138.2,52.0 L138.9,52.8 L139.5,52.9 L140.2,52.6 L140.9,53.1 L141.6,53.1 L142.2,53.5 L142.9,53.9 L143.6,53.8 L144.2,54.2 L144.9,53.9 L145.6,54.6 L146.2,54.2 L146.9,54.8 L147.6,54.6 L148.2,54.8 L148.9,55.3 L149.6,55.6 L150.2,55.3 L150.9,55.5 L151.6,56.0 L152.3,55.9 L152.9,56.6 L153.6,56.2 L154.3,56.8 L154.9,56.6 L155.6,56.8 L156.3,56.9 L156.9,57.4 L157.6,57.5 L158.3,57.5 L158.9,57.7 L159.6,58.3 L160.3,58.3 L160.9,58.5 L161.6,58.4 L162.3,58.9 L162.9,58.8 L163.6,59.5 L164.3,59.3 L165.0,59.2 L165.6,59.8 L166.3,59.6 L167.0,60.5 L167.6,60.3 L168.3,60.1 L169.0,60.6 L169.6,61.0 L170.3,60.7 L171.0,61.0 L171.6,61.4 L172.3,61.9 L173.0,61.6 L173.6,62.0 L174.3,61.8 L175.0,62.6 L175.7,62.3 L176.3,62.7 L177.0,62.6 L177.7,62.4 L178.3,62.9 L179.0,62.8 L179.7,63.2 L180.3,63.1 L181.0,63.6 L181.7,63.8 L182.3,63.5 L183.0,64.2 L183.7,63.8 L184.3,64.5 L185.0,64.5 L185.7,64.8 L186.3,64.8 L187.0,65.0 L187.7,65.4 L188.4,64.9 L189.0,65.5 L189.7,65.2 L190.4,65.7 L191.0,65.9 L191.7,66.0 L192.4,66.2 L193.0,66.2 L193.7,66.5 L194.4,66.8 L195.0,66.5 L195.7,66.5 L196.4,67.3 L197.0,67.1 L197.7,67.0 L198.4,67.5 L199.1,67.3 L199.7,67.8 L200.4,67.7 L201.1,68.1 L201.7,68.4 L202.4,68.5 L203.1,68.9 L203.7,68.9 L204.4,69.0 L205.1,68.7 L205.7,69.4 L206.4,69.3 L207.1,69.7 L207.7,69.4 L208.4,69.4 L209.1,69.9 L209.7,69.9 L210.4,70.2 L211.1,71.2 L211.8,70.2 L212.4,70.9 L213.1,70.8 L213.8,71.5 L214.4,71.8 L215.1,71.5 L215.8,71.5 L216.4,71.7 L217.1,71.8 L217.8,72.2 L218.4,72.1 L219.1,71.9 L219.8,72.6 L220.4,72.7 L221.1,72.8 L221.8,72.6 L222.5,72.7 L223.1,73.3 L223.8,73.1 L224.5,73.6 L225.1,73.8 L225.8,74.0 L226.5,74.1 L227.1,74.3 L227.8,75.0 L228.5,74.3 L229.1,74.9 L229.8,74.6 L230.5,75.2 L231.1,75.4 L231.8,75.5 L232.5,75.7 L233.1,75.5 L233.8,76.0 L234.5,76.4 L235.2,76.6 L235.8,76.2 L236.5,77.2 L237.2,77.0 L237.8,77.2 L238.5,77.2 L239.2,77.1 L239.8,77.7 L240.5,77.9 L241.2,77.7 L241.8,78.4 L242.5,78.5 L243.2,78.9 L243.8,78.9 L244.5,79.4 L245.2,75.4 L245.9,82.7 L246.5,79.8 L247.2,79.9 L247.9,81.3 L248.5,80.3 L249.2,80.5 L249.9,80.4 L250.5,81.0 L251.2,80.7 L251.9,81.4 L252.5,81.5 L253.2,81.7 L253.9,81.5 L254.5,82.2 L255.2,82.4 L255.9,82.6 L256.5,82.6 L257.2,82.9 L257.9,83.2 L258.6,83.4 L259.2,83.2 L259.9,84.3 L260.6,83.6 L261.2,84.1 L261.9,84.0 L262.6,84.5 L263.2,84.6 L263.9,84.9 L264.6,84.8 L265.2,85.3 L265.9,85.1 L266.6,86.0 L267.2,85.9 L267.9,86.1 L268.6,86.3 L269.3,86.4 L269.9,86.4 L270.6,86.7 L271.3,86.5 L271.9,87.2 L272.6,86.9 L273.3,87.8 L273.9,87.2 L274.6,87.8 L275.3,88.0 L275.9,88.2 L276.6,88.5 L277.3,88.5 L277.9,88.2 L278.6,88.8 L279.3,88.6 L279.9,89.8 L280.6,88.8 L281.3,89.4 L282.0,89.1 L282.6,89.7 L283.3,90.3 L284.0,90.1 L284.6,89.8 L285.3,90.3 L286.0,91.0 L286.6,90.7 L287.3,90.7 L288.0,91.0 L288.6,90.6 L289.3,91.4 L290.0,90.9 L290.6,91.6 L291.3,91.2 L292.0,91.7 L292.7,92.3 L293.3,92.1 L294.0,91.7 L294.7,92.3 L295.3,92.1 L296.0,93.0 L296.7,92.2 L297.3,92.9 L298.0,92.5 L298.7,93.0 L299.3,92.7 L300.0,93.3 L300.7,93.0 L301.3,93.6 L302.0,93.3 L302.7,93.8 L303.3,94.4 L304.0,94.0 L304.7,94.2 L305.4,94.3 L306.0,94.0 L306.7,94.5 L307.4,95.0 L308.0,94.7 L308.7,95.0 L309.4,95.0 L310.0,94.8 L310.7,95.2 L311.4,94.9 L312.0,95.5 L312.7,95.5 L313.4,95.6 L314.0,95.3 L314.7,95.9 L315.4,96.0 L316.1,96.1 L316.7,95.7 L317.4,96.2 L318.1,95.9 L318.7,96.4 L319.4,96.0 L320.1,96.6 L320.7,96.3 L321.4,97.2 L322.1,96.6 L322.7,97.0 L323.4,97.0 L324.1,97.2 L324.7,96.8 L325.4,97.3 L326.1,97.0 L326.7,97.6 L327.4,97.2 L328.1,97.3 L328.8,97.4 L329.4,98.3 L330.1,97.5 L330.8,98.0 L331.4,97.8 L332.1,98.2 L332.8,98.4 L333.4,98.4 L334.1,98.6 L334.8,98.6 L335.4,98.8 L336.1,98.8 L336.8,98.4 L337.4,99.0 L338.1,98.6 L338.8,99.1 L339.5,98.8 L340.1,99.5 L340.8,99.0 L341.5,99.4 L342.1,99.2 L342.8,101.0 L343.5,100.2 L344.1,99.8 L344.8,99.9 L345.5,99.9 L346.1,99.6 L346.8,100.1 L347.5,99.8 L348.1,100.3 L348.8,99.9 L349.5,100.4 L350.1,100.1 L350.8,101.4 L351.5,100.2 L352.2,100.8 L352.8,100.9 L353.5,101.7 L354.2,100.5 L354.8,101.0 L355.5,101.1 L356.2,101.2 L356.8,100.8 L357.5,101.5 L358.2,101.0 L358.8,101.4 L359.5,101.2 L360.2,101.6 L360.8,101.2 L361.5,102.1 L362.2,101.4 L362.9,101.9 L363.5,101.6 L364.2,101.6 L364.9,102.0 L365.5,102.2 L366.2,101.9 L366.9,101.9 L367.5,102.0 L368.2,103.1 L368.9,102.2 L369.5,102.2 L370.2,102.3 L370.9,102.9 L371.5,102.9 L372.2,103.0 L372.9,103.1 L373.5,103.3 L374.2,103.1 L374.9,103.3 L375.6,103.0 L376.2,103.5 L376.9,103.1 L377.6,103.9 L378.2,103.2 L378.9,103.7 L379.6,103.4 L380.2,103.9 L380.9,104.6 L381.6,104.0 L382.2,104.1 L382.9,104.2 L383.6,103.9 L384.2,104.4 L384.9,104.2 L385.6,104.6 L386.3,104.2 L386.9,104.8 L387.6,104.4 L388.3,104.9 L388.9,104.5 L389.6,105.0 L390.3,104.7 L390.9,105.2 L391.6,105.4 L392.3,105.4 L392.9,105.1 L393.6,105.6 L394.3,105.2 L394.9,105.7 L395.6,105.4 L396.3,105.8 L396.9,105.6 L397.6,106.1 L398.3,105.7 L399.0,106.6 L399.6,105.9 L400.3,106.5 L401.0,106.1 L401.6,106.8 L402.3,106.3 L403.0,106.5 L403.6,106.5 L404.3,106.6 L405.0,106.7 L405.6,106.9 L406.3,106.9 L407.0,107.0 L407.6,107.1 L408.3,107.6 L409.0,107.3 L409.7,108.2 L410.3,107.5 L411.0,107.6 L411.7,107.7 L412.3,107.8 L413.0,108.3 L413.7,108.0 L414.3,108.1 L415.0,108.2 L415.7,108.7 L416.3,108.7 L417.0,108.6 L417.7,108.8 L418.3,108.9 L419.0,109.4 L419.7,109.2 L420.3,109.6 L421.0,110.0 L421.7,109.9 L422.4,109.8 L423.0,110.2 L423.7,109.9 L424.4,110.4 L425.0,110.1 L425.7,110.7 L426.4,110.4 L427.0,111.0 L427.7,110.7 L428.4,111.2 L429.0,110.9 L429.7,112.1 L430.4,111.2 L431.0,112.2 L431.7,111.6 L432.4,111.7 L433.1,112.6 L433.7,112.0 L434.4,112.0 L435.1,112.5 L435.7,112.4 L436.4,112.8 L437.1,112.5 L437.7,112.7 L438.4,112.8 L439.1,113.4 L439.7,113.4 L440.4,113.7 L441.1,113.4 L441.7,114.3 L442.4,113.7 L443.1,113.8 L443.7,114.0 L444.4,114.1 L445.1,114.3 L445.8,114.4 L446.4,114.6 L447.1,114.7 L447.8,114.9 L448.4,115.5 L449.1,115.2 L449.8,115.9 L450.4,116.3 L451.1,115.8 L451.8,115.9 L452.4,116.1 L453.1,116.3 L453.8,116.8 L454.4,116.7 L455.1,116.9 L455.8,117.1 L456.5,117.7 L457.1,118.0 L457.8,118.0 L458.5,117.8 L459.1,118.4 L459.8,118.2 L460.5,119.4 L461.1,118.8 L461.8,118.7 L462.5,118.9 L463.1,119.1 L463.8,119.5 L464.5,119.9 L465.1,119.5 L465.8,120.2 L466.5,120.0 L467.1,120.1 L467.8,120.5 L468.5,121.1 L469.2,120.7 L469.8,121.6 L470.5,121.0 L471.2,121.7 L471.8,121.5 L472.5,121.7 L473.2,121.9 L473.8,122.1 L474.5,122.3 L475.2,122.5 L475.8,122.7 L476.5,123.4 L477.2,123.4 L477.8,123.8 L478.5,123.5 L479.2,124.6 L479.9,123.9 L480.5,124.0 L481.2,124.3 L481.9,124.3 L482.5,124.5 L483.2,124.8 L483.9,124.8 L484.5,123.3 L485.2,121.5 L485.9,121.1 L486.5,121.0 L487.2,121.0 L487.9,122.7 L488.5,125.7 L489.2,125.9 L489.9,130.1 L490.5,124.9 L491.2,128.1 L491.9,126.8 L492.6,127.2 L493.2,127.0 L493.9,126.9 L494.6,127.1 L495.2,128.1 L495.9,127.4 L496.6,128.1 L497.2,127.7 L497.9,128.4 L498.6,128.1 L499.2,128.8 L499.9,128.5 L500.6,129.3 L501.2,129.0 L501.9,129.7 L502.6,129.5 L503.3,129.8 L503.9,130.0 L504.6,130.3 L505.3,130.8 L505.9,131.1 L506.6,131.6 L507.3,131.9 L507.9,132.5 L508.6,133.8 L509.3,134.4 L509.9,135.1 L510.6,135.9 L511.3,136.8 L511.9,137.7 L512.6,138.3 L513.3,139.1 L513.9,140.1 L514.6,142.1 L515.3,142.8 L516.0,143.5 L516.6,145.1 L517.3,145.8 L518.0,147.7 L518.6,148.5 L519.3,150.4 L520.0,151.8 L520.6,152.7 L521.3,154.2 L522.0,156.4 L522.6,157.6 L523.3,160.2 L524.0,161.3 L524.6,163.3 L525.3,165.7 L526.0,168.3 L526.7,170.7 L527.3,173.6 L528.0,175.8 L528.7,179.6 L529.3,182.6 L530.0,187.3 L530.7,191.9 L531.3,197.8 L532.0,204.5"/><text class="lb s1f" x="540.0" y="208.5">5S Li-ion</text><text class="cap t2" x="64" y="14">Run 7: full charge to BMS cutoff, 1885 mAh over 12.2 h</text></svg>