<svg xmlns="http://www.w3.org/2000/svg" viewBox="0 0 640 260" width="640" height="260" role="img"><style>.bg{fill:#fcfcfb}.t{fill:#0b0b0b}.t2{fill:#52514e}.g{stroke:#e6e5e1}.a{stroke:#e6e5e1}.s1{stroke:#2a78d6}.s2{stroke:#eb6834}.s1f{fill:#2a78d6}.s2f{fill:#eb6834}@media(prefers-color-scheme:dark){.bg{fill:#1a1a19}.t{fill:#ffffff}.t2{fill:#c3c2b7}.g{stroke:#333331}.a{stroke:#333331}.s1{stroke:#3987e5}.s2{stroke:#d95926}.s1f{fill:#3987e5}.s2f{fill:#d95926}}.g,.a{stroke-width:1}.ln{fill:none;stroke-width:2;stroke-linejoin:round;stroke-linecap:round}.t,.t2{font:11px system-ui,sans-serif}.lb{font:11px system-ui,sans-serif;font-weight:600}.cap{font:12px system-ui,sans-serif}</style><rect class="bg" width="640" height="260"/><line class="g" x1="64" y1="178.0" x2="532" y2="178.0"/><text class="t2" x="56" y="182.0" text-anchor="end">3.2</text><line class="g" x1="64" y1="136.4" x2="532" y2="136.4"/><text class="t2" x="56" y="140.4" text-anchor="end">3.5</text><line class="g" x1="64" y1="94.7" x2="532" y2="94.7"/><text class="t2" x="56" y="98.7" text-anchor="end">3.8</text><line class="g" x1="64" y1="53.0" x2="532" y2="53.0"/><text class="t2" x="56" y="57.0" text-anchor="end">4.0</text><text class="t2" x="64.0" y="238" text-anchor="middle">0</text><text class="t2" x="176.8" y="238" text-anchor="middle">5</text><text class="t2" x="289.5" y="238" text-anchor="middle">10</text><text class="t2" x="402.3" y="238" text-anchor="middle">15</text><text class="t2" x="515.1" y="238" text-anchor="middle">20</text><line class="a" x1="64" y1="218" x2="532" y2="218"/><text class="t2" x="298.0" y="252" text-anchor="middle">hours</text><text class="t2" transform="translate(14,120.0) rotate(-90)" text-anchor="middle">V/cell</text><path class="ln s1" d="M64.0,36.5 L64.4,35.6 L64.8,35.5 L65.1,36.0 L65.5,36.0 L65.9,36.7 L66.3,37.8 L66.6,37.5 L67.0,37.5 L67.4,37.8 L67.8,38.2 L68.1,38.3 L68.5,38.7 L68.9,38.3 L69.3,38.7 L69.6,38.8 L70.0,39.0 L70.4,39.7 L70.8,39.5 L71.1,40.1 L71.5,39.9 L71.9,40.6 L72.3,40.9 L72.6,40.9 L73.0,41.1 L73.4,41.3 L73.8,41.5 L74.1,41.4 L74.5,41.3 L74.9,42.3 L75.3,41.6 L75.7,42.4 L76.0,42.0 L76.4,42.5 L76.8,42.3 L77.2,42.8 L77.5,42.5 L77.9,43.5 L78.3,43.2 L78.7,43.3 L79.0,43.0 L79.4,43.1 L79.8,43.4 L80.2,43.5 L80.5,43.4 L80.9,44.3 L315.8,57.7 L316.2,57.5 L316.6,57.8 L317.0,58.1 L317.4,58.4 L317.7,58.6 L318.1,59.0 L318.5,59.2 L318.9,59.9 L319.2,59.8 L319.6,60.4 L320.0,61.0 L320.4,61.0 L320.7,60.7 L321.1,60.9 L321.5,61.3 L321.9,61.9 L322.2,61.8 L322.6,62.4 L323.0,62.2 L323.4,63.6 L323.7,62.6 L324.1,63.4 L324.5,63.1 L324.9,63.8 L325.2,63.6 L325.6,64.2 L326.0,64.0 L326.4,64.8 L326.8,64.7 L327.1,65.2 L327.5,65.0 L327.9,65.7 L328.3,65.6 L328.6,66.0 L329.0,65.9 L329.4,67.1 L329.8,66.3 L330.1,66.6 L330.5,66.9 L330.9,67.4 L331.3,67.7 L331.6,67.9 L332.0,67.7 L332.4,67.9 L332.8,68.1 L333.1,69.4 L333.5,68.5 L333.9,68.8 L334.3,69.0 L334.6,69.1 L335.0,69.4 L335.4,69.6 L335.8,69.8 L336.1,70.5 L336.5,71.8 L336.9,71.0 L337.3,70.6 L337.7,71.5 L338.0,71.0 L338.4,71.3 L338.8,72.9 L339.2,71.7 L339.5,73.4 L339.9,73.7 L340.3,73.8 L340.7,72.5 L341.0,74.3 L341.4,74.4 L341.8,73.1 L342.2,75.4 L342.5,75.1 L342.9,74.2 L343.3,73.9 L343.7,76.2 L344.0,75.9 L344.4,74.5 L344.8,76.3 L345.2,76.5 L345.5,76.7 L345.9,75.5 L346.3,77.1 L346.7,76.0 L347.1,77.7 L347.4,78.3 L347.8,77.9 L348.2,76.7 L348.6,78.3 L348.9,77.4 L349.3,77.2 L349.7,78.9 L350.1,77.7 L350.4,79.3 L350.8,78.6 L351.2,79.0 L351.6,78.6 L351.9,80.4 L352.3,79.4 L352.7,80.3 L353.1,80.2 L353.4,80.4 L353.8,80.9 L354.2,80.7 L354.6,81.5 L354.9,81.3 L355.3,82.2 L355.7,82.2 L356.1,82.0 L356.4,82.4 L356.8,83.0 L357.2,83.3 L357.6,83.0 L358.0,83.7 L358.3,83.5 L358.7,85.0 L359.1,84.1 L359.5,83.5 L359.8,84.9 L360.2,84.6 L360.6,85.3 L361.0,85.2 L361.3,84.8 L361.7,85.7 L362.1,85.2 L362.5,86.2 L362.8,85.3 L363.2,86.5 L363.6,86.9 L364.0,86.7 L364.3,87.7 L364.7,88.5 L365.1,87.0 L365.5,87.7 L365.8,88.7 L366.2,87.4 L366.6,87.7 L367.0,89.4 L367.3,89.0 L367.7,88.8 L368.1,90.2 L368.5,91.1 L368.9,89.8 L369.2,91.5 L369.6,91.3 L370.0,90.5 L370.4,91.8 L370.7,90.5 L371.1,90.8 L371.5,92.6 L371.9,91.4 L372.2,91.6 L372.6,91.9 L373.0,92.2 L373.4,92.4 L373.7,92.8 L374.1,93.0 L374.5,93.7 L374.9,93.6 L375.2,94.3 L375.6,94.1 L376.0,94.3 L376.4,94.6 L376.7,94.9 L377.1,95.6 L377.5,95.5 L377.9,95.9 L378.3,96.0 L378.6,96.9 L379.0,96.5 L379.4,96.8 L379.8,97.5 L380.1,97.3 L380.5,98.6 L380.9,97.8 L381.3,98.5 L381.6,98.3 L382.0,98.6 L382.4,98.8 L382.8,99.2 L383.1,99.3 L383.5,99.6 L383.9,99.8 L384.3,100.0 L384.6,100.2 L385.0,100.5 L385.4,100.7 L385.8,101.4 L386.1,101.2 L386.5,102.2 L386.9,101.7 L387.3,102.4 L387.6,102.1 L388.0,102.3 L388.4,102.6 L388.8,102.8 L389.2,103.0 L389.5,103.2 L389.9,103.8 L390.3,103.6 L390.7,104.3 L391.0,104.6 L391.4,104.3 L391.8,104.9 L392.2,105.4 L392.5,104.9 L392.9,105.5 L393.3,105.2 L393.7,105.4 L394.0,106.2 L394.4,105.8 L394.8,106.0 L395.2,106.2 L395.5,107.0 L395.9,106.7 L396.3,106.8 L396.7,106.9 L397.0,107.6 L397.4,107.3 L397.8,108.0 L398.2,107.6 L398.6,108.3 L398.9,108.0 L399.3,108.2 L399.7,108.3 L400.1,108.6 L400.4,108.8 L400.8,109.2 L401.2,109.0 L401.6,109.1 L401.9,110.2 L402.3,109.7 L402.7,109.9 L403.1,110.5 L403.4,110.3 L403.8,110.7 L404.2,110.2 L404.6,110.4 L404.9,110.5 L405.3,110.7 L405.7,111.7 L406.1,111.0 L406.4,111.5 L406.8,111.6 L407.2,112.0 L407.6,112.5 L407.9,111.7 L408.3,112.5 L408.7,112.0 L409.1,112.1 L409.5,113.3 L409.8,112.9 L410.2,112.6 L410.6,112.9 L411.0,112.8 L411.3,113.0 L411.7,113.1 L412.1,113.2 L412.5,113.4 L412.8,114.0 L413.2,113.7 L413.6,114.4 L414.0,113.9 L414.3,114.1 L414.7,114.6 L415.1,114.3 L415.5,114.8 L415.8,114.6 L416.2,114.7 L416.6,114.9 L417.0,114.9 L417.3,115.6 L417.7,115.3 L418.1,115.8 L418.5,115.4 L418.9,116.3 L419.2,116.0 L419.6,116.4 L420.0,116.0 L420.4,116.0 L420.7,116.2 L421.1,116.6 L421.5,116.4 L421.9,116.5 L422.2,116.6 L422.6,117.1 L423.0,116.9 L423.4,117.0 L423.7,117.7 L424.1,117.5 L424.5,118.1 L424.9,117.5 L425.2,117.5 L425.6,117.7 L426.0,118.7 L426.4,118.1 L426.7,118.1 L427.1,118.2 L427.5,118.9 L427.9,118.2 L428.2,119.4 L428.6,118.5 L429.0,119.4 L429.4,119.2 L429.8,119.7 L430.1,119.4 L430.5,119.9 L430.9,119.6 L431.3,120.9 L431.6,119.5 L432.0,119.5 L432.4,120.2 L432.8,119.9 L433.1,119.8 L433.5,119.9 L433.9,120.0 L434.3,120.6 L434.6,120.2 L435.0,120.3 L435.4,121.0 L435.8,120.5 L436.1,121.6 L436.5,121.1 L436.9,120.8 L437.3,121.0 L437.6,121.0 L438.0,121.6 L438.4,121.2 L438.8,121.3 L439.1,121.5 L439.5,121.6 L439.9,122.1 L440.3,121.7 L440.7,122.4 L441.0,122.0 L441.4,122.4 L441.8,122.8 L442.2,122.3 L442.5,122.4 L442.9,122.4 L443.3,122.6 L443.7,123.3 L444.0,122.8 L444.4,123.3 L444.8,123.5 L445.2,123.3 L445.5,124.0 L445.9,123.3 L446.3,124.0 L446.7,123.7 L447.0,124.3 L447.4,125.3 L447.8,123.8 L448.2,124.1 L448.5,124.1 L448.9,124.2 L449.3,125.2 L449.7,124.4 L450.1,125.5 L450.4,124.6 L450.8,125.5 L451.2,124.9 L451.6,126.5 L451.9,125.7 L452.3,126.0 L452.7,126.0 L453.1,126.2 L453.4,125.5 L453.8,125.8 L454.2,125.7 L454.6,126.6 L454.9,126.1 L455.3,126.0 L455.7,126.5 L456.1,127.0 L456.4,127.0 L456.8,127.1 L457.2,127.2 L457.6,128.1 L457.9,127.5 L458.3,127.0 L458.7,127.1 L459.1,128.1 L459.4,127.4 L459.8,127.5 L460.2,127.6 L460.6,127.8 L461.0,127.9 L461.3,128.1 L461.7,128.7 L462.1,128.3 L462.5,129.0 L462.8,128.9 L463.2,129.2 L463.6,128.9 L464.0,129.2 L464.3,129.7 L464.7,129.3 L465.1,130.1 L465.5,129.6 L465.8,129.9 L466.2,129.9 L466.6,130.5 L467.0,130.6 L467.3,131.0 L467.7,131.1 L468.1,131.6 L468.5,130.9 L468.8,131.9 L469.2,131.4 L469.6,131.4 L470.0,131.6 L470.3,131.7 L470.7,131.9 L471.1,133.2 L471.5,132.2 L471.9,133.2 L472.2,132.7 L472.6,133.7 L473.0,133.0 L473.4,134.1 L473.7,133.9 L474.1,134.3 L474.5,134.5 L474.9,134.7 L475.2,135.1 L475.6,134.3 L476.0,134.5 L476.4,135.3 L476.7,134.9 L477.1,135.0 L477.5,135.2 L477.9,136.9 L478.2,136.2 L478.6,136.5 L479.0,135.9 L479.4,136.7 L479.7,136.8 L480.1,137.6 L480.5,137.4 L480.9,136.9 L481.3,137.1 L481.6,137.3 L482.0,137.4 L482.4,137.6 L482.8,137.8 L483.1,139.3 L483.5,138.3 L483.9,139.1 L484.3,138.7 L484.6,139.5 L485.0,140.5 L485.4,140.0 L485.8,140.2 L486.1,140.5 L486.5,140.3 L486.9,140.3 L487.3,140.5 L487.6,141.6 L488.0,141.0 L488.4,141.3 L488.8,141.5 L489.1,142.6 L489.5,143.1 L489.9,143.2 L490.3,142.5 L490.6,144.3 L491.0,143.5 L491.4,145.0 L491.8,144.5 L492.2,143.7 L492.5,144.7 L492.9,144.2 L493.3,144.4 L493.7,145.5 L494.0,144.9 L494.4,147.1 L494.8,145.3 L495.2,146.4 L495.5,147.6 L495.9,146.7 L496.3,146.6 L496.7,147.3 L497.0,147.4 L497.4,147.8 L497.8,147.6 L498.2,148.9 L498.5,147.9 L498.9,149.1 L499.3,148.5 L499.7,148.8 L500.0,149.1 L500.4,150.1 L500.8,150.3 L501.2,150.6 L501.6,150.9 L501.9,151.1 L502.3,151.4 L502.7,151.7 L503.1,151.9 L503.4,152.1 L503.8,152.3 L504.2,151.8 L504.6,153.2 L504.9,152.2 L505.3,152.5 L505.7,154.5 L506.1,153.3 L506.4,153.7 L506.8,153.3 L507.2,154.4 L507.6,154.3 L507.9,154.1 L508.3,154.4 L508.7,154.3 L509.1,154.9 L509.4,154.8 L509.8,155.6 L510.2,155.9 L510.6,156.7 L510.9,156.4 L511.3,156.6 L511.7,156.9 L512.1,157.1 L512.5,157.4 L512.8,157.7 L513.2,158.0 L513.6,158.8 L514.0,161.4 L514.3,159.2 L514.7,158.6 L515.1,159.1 L515.5,159.8 L515.8,159.8 L516.2,161.2 L516.6,160.7 L517.0,162.2 L517.3,161.8 L517.7,163.4 L518.1,164.0 L518.5,164.9 L518.8,165.9 L519.2,167.2 L519.6,168.6 L520.0,168.6 L520.3,169.8 L520.7,171.1 L521.1,172.5 L521.5,174.2 L521.9,175.4 L522.2,178.0 L522.6,178.5 L523.0,181.3 L523.4,182.5 L523.7,184.3 L524.1,186.2 L524.5,188.2 L524.9,190.1 L525.2,192.1 L525.6,193.7 L526.0,195.9 L526.4,198.3 L526.7,200.9 L527.1,204.5 L527.5,197.9 L527.9,197.5 L528.2,197.3 L528.6,197.2 L529.0,197.0 L529.4,197.0 L529.7,196.9 L530.1,196.8 L530.5,196.8 L530.9,196.7 L531.2,196.7 L531.6,196.7 L532.0,196.6"/><text class="lb s1f" x="540.0" y="200.6">5S Li-ion</text><text class="cap t2" x="64" y="14">Discharge at ~150 mA, 5S1P 18650, plateau through the knee</text></svg>